<?xml version="1.0" standalone="no"?><!DOCTYPE svg PUBLIC "-//W3C//DTD SVG 1.1//EN" "http://www.w3.org/Graphics/SVG/1.1/DTD/svg11.dtd"><svg class="icon" width="200px" height="200.00px" viewBox="0 0 1024 1024" version="1.1" xmlns="http://www.w3.org/2000/svg"><path fill="#bfcbd9" d="M864 64H160c-17.664 0-32 14.336-32 32v832c0 17.664 14.336 32 32 32h704c17.664 0 32-14.336 32-32V96c0-17.664-14.336-32-32-32z m-32 832H192V128h640v768zM353.92 320c17.6 0 32-14.336 32-32s-14.336-32-32-32h-0.64c-17.664 0-31.68 14.336-31.68 32s14.656 32 32.32 32z m0 192c17.6 0 32-14.336 32-32s-14.336-32-32-32h-0.64c-17.664 0-31.68 14.336-31.68 32s14.656 32 32.32 32z m0 192c17.6 0 32-14.336 32-32s-14.336-32-32-32h-0.64c-17.6 0-31.616 14.336-31.616 32s14.592 32 32.256 32zM480 320h192c17.664 0 32-14.336 32-32s-14.336-32-32-32H480c-17.664 0-32 14.336-32 32s14.336 32 32 32z m0 192h192c17.664 0 32-14.336 32-32s-14.336-32-32-32H480c-17.664 0-32 14.336-32 32s14.336 32 32 32z m0 192h192c17.664 0 32-14.336 32-32s-14.336-32-32-32H480c-17.664 0-32 14.336-32 32s14.336 32 32 32z" /></svg>