<?xml version="1.0" standalone="no"?>
<!DOCTYPE svg PUBLIC "-//W3C//DTD SVG 1.1//EN" "http://www.w3.org/Graphics/SVG/1.1/DTD/svg11.dtd">
<svg class="icon" width="200px" height="200.00px" viewBox="0 0 1024 1024" version="1.1" xmlns="http://www.w3.org/2000/svg">
	<path  d="M192 128a64 64 0 0 0-64 64v128a64 64 0 0 0 64 64h128a64 64 0 0 0 64-64V192a64 64 0 0 0-64-64H192z m0-64h128a128 128 0 0 1 128 128v128a128 128 0 0 1-128 128H192A128 128 0 0 1 64 320V192A128 128 0 0 1 192 64z m440.256 658.752a64 64 0 0 0 0 90.496l90.496 90.496a64 64 0 0 0 90.496 0l90.496-90.496a64 64 0 0 0 0-90.496l-90.496-90.496a64 64 0 0 0-90.496 0l-90.496 90.496zM192 640a64 64 0 0 0-64 64v128a64 64 0 0 0 64 64h128a64 64 0 0 0 64-64V704a64 64 0 0 0-64-64H192z m0-64h128a128 128 0 0 1 128 128v128a128 128 0 0 1-128 128H192A128 128 0 0 1 64 832V704a128 128 0 0 1 128-128z m576-192a128 128 0 1 0 0-256 128 128 0 0 0 0 256z m0 64a192 192 0 1 1 0-384 192 192 0 0 1 0 384z" />
</svg>
