<?xml version="1.0" standalone="no"?><!DOCTYPE svg PUBLIC "-//W3C//DTD SVG 1.1//EN" "http://www.w3.org/Graphics/SVG/1.1/DTD/svg11.dtd"><svg t="1619490577625" class="icon" viewBox="0 0 1024 1024" version="1.1" xmlns="http://www.w3.org/2000/svg" p-id="1503" width="128" height="128" xmlns:xlink="http://www.w3.org/1999/xlink"><defs><style type="text/css"></style></defs><path d="M768.07168 68.446316A512.485053 512.485053 0 0 0 512.610627 0C335.296943 0 163.372733 91.621053 68.517996 256-72.686215 500.682105 11.389575 814.349474 256.07168 955.553684c77.608421 45.271579 165.995789 68.446316 255.461053 68.446316 177.313684 0 349.237895-91.621053 444.092631-256 141.204211-244.682105 57.128421-557.810526-187.553684-699.553684z m165.456842 686.618947c-134.197895 231.208421-430.618947 310.972632-662.366316 176.774737C39.414838 797.642105-39.810425 501.221053 94.387469 269.473684 228.585364 37.726316 525.006417-41.498947 756.753785 92.698947a484.648421 484.648421 0 0 1 238.214737 479.124211c-8.084211 64.673684-29.103158 127.191579-61.44 183.242105z" fill="#4c4d4e" p-id="1504"></path><path d="M746.513785 105.633684a464.303158 464.303158 0 0 0-233.903158-63.056842c-162.223158 0-320.134737 84.075789-406.905263 234.442105-129.347368 224.202105-52.816842 511.461053 171.385263 640.808421a464.303158 464.303158 0 0 0 233.903158 63.056843c162.223158 0 320.134737-84.075789 406.905263-234.442106 130.425263-224.202105 53.355789-511.461053-171.385263-640.808421z m210.728421 287.258948c65.212632 245.221053-80.303158 496.909474-325.52421 562.122105C385.957996 1019.688421 134.808522 874.711579 69.056943 629.490526 3.305364 384.269474 149.360101 132.581053 394.581154 66.829474c180.008421-47.966316 372.412632 17.785263 484.513684 167.073684 36.648421 47.966316 62.517895 101.322105 78.147368 158.989474z" fill="#4c4d4e" p-id="1505"></path><path d="M420.639259 150.096842l26.219789-2.290526-13.123368-22.528 6.871579-25.896421-25.788632 6.898526-22.123789-13.392842-2.802526 26.381474-20.129685 17.623579 24.306527 9.674105 9.647158 24.252631 16.922947-20.749473zM257.499891 261.281684l8.08421-25.869473 23.255579-13.312-21.045895-15.279158-3.961263-26.543158-21.288421 16.357052-25.842526-3.745684 7.922526 25.114948-11.614316 24.414315 25.869474-0.619789 18.620632 19.482947zM571.355891 149.962105l24.225684 10.85979 0.107789-26.058106 18.728421-18.432-25.626947-7.329684-12.39579-22.716631-15.737263 20.776421-26.354526 4.688842 16.141474 20.533895-3.718737 25.869473 24.629895-8.192zM161.728943 420.648421l-0.269474-27.54021 18.054737-19.429053-24.791579-8.757895-11.587368-24.090947-15.090526 21.773473-25.168842 4.769685 15.36 21.935158-3.799579 27.055157 24.441263-8.892631c-0.538947 0.916211 22.878316 13.204211 22.878316 13.20421zM862.656943 582.063158l0.538948 27.082105-17.785264 18.970948 24.360421 8.461473 12.072421 24.387369 15.090527-21.800421 24.872421-4.311579-15.36-21.908211 3.799579-27.055158-24.17179 8.434527-23.417263-12.261053z m-239.696842 268.584421l-26.219789 2.290526 13.150315 22.528-6.602105 25.438316 25.492211-6.440421 22.123789 13.419789 2.802526-26.408421 20.129685-17.623579-23.821474-9.404631-9.647158-24.252632-17.408 20.48z m-207.925895 4.419368l-1.778526 25.734737-20.129684 17.623579 24.818526 8.730948 10.671158 23.578947 17.111579-19.968 26.489263-2.748632-14.874947-21.665684 5.874526-25.249684-26.246737 6.629053c1.212632 0.080842-21.935158-12.665263-21.935158-12.665264z m360.205474-123.715368l-7.814737 25.357474-22.986105 12.853894 20.587789 15.009685 3.961264 26.570105 20.803368-16.626526 25.869474 3.718736-7.922527-25.088 11.587369-24.441263-25.869474 0.61979-18.216421-17.973895zM204.440522 425.418105c44.678737-168.986947 217.788632-269.446737 386.048-224.579368 28.025263 7.491368 55.134316 18.782316 80.815158 33.603368l8.218947-4.581052C526.542417 135.922526 327.104943 183.834947 233.435891 336.357053a328.353684 328.353684 0 0 0-48.047158 181.355789l8.218947-4.581053c-0.134737-29.938526 3.072-59.203368 10.832842-87.713684z" fill="#4c4d4e" p-id="1506"></path><path d="M800.219891 586.752c-44.651789 168.986947-217.788632 269.419789-386.048 224.552421a334.389895 334.389895 0 0 1-81.273264-33.845895l-7.760842 4.850527c152.710737 94.396632 352.148211 46.484211 446.086737-106.522948a328.353684 328.353684 0 0 0 48.074105-181.355789l-8.245894 4.581052c0.134737 29.965474-3.072 59.230316-10.832842 87.740632zM457.718838 218.489263c59.149474-7.545263 119.781053 3.799579 172.94821 31.393684l8.973474-4.796631c-144.437895-79.656421-325.766737-27.486316-405.423158 116.951579-24.064 42.711579-36.648421 91.459368-37.672421 140.665263l9.000421-4.769684c3.691789-142.255158 110.780632-260.904421 252.173474-279.444211z" fill="#4c4d4e" p-id="1507"></path><path d="M556.858206 811.978105c-59.149474 7.545263-119.781053-3.799579-172.94821-31.393684l-8.973474 4.769684C519.374417 865.010526 700.703259 812.894316 780.35968 668.456421a307.119158 307.119158 0 0 0 37.187368-140.961684l-8.515368 5.039158c-3.233684 142.497684-110.322526 261.146947-252.173474 279.44421zM298.648522 519.760842c6.305684 11.722105 11.856842 23.659789 18.216421 34.169263l20.58779 35.543579c7.895579 13.258105 15.306105 26.273684 23.013052 38.804211l-21.234526 11.991579-8.569263-14.282106-126.005895 71.653053 36.486737 64c7.491368 16.141474 19.159579 18.539789 36.190316 8.461474l94.773894-54.218106c11.183158-5.362526 17.839158-11.479579 19.671579-17.893052 1.562947-5.928421-1.077895-18.647579-9.323789-37.726316 9.889684 0.107789 19.132632-0.808421 30.073263-2.56 6.063158 19.671579 8.353684 34.088421 6.656 42.415158-1.266526 8.623158-6.036211 15.818105-14.821053 21.342316L276.821154 794.677895c-22.770526 13.608421-38.750316 9.997474-49.071158-10.913684l-46.780632-81.758316c-3.233684-6.224842-10.752-18.027789-21.557895-34.842948l23.255579-13.338947c4.769684 8.973474 9.269895 18.432 14.309053 26.947368l125.278316-71.464421-34.304-60.227368-106.037895 60.739368c-14.740211 8.299789-31.016421 18.189474-49.313684 29.399579l-10.671158-19.240421a2048.943158 2048.943158 0 0 0 48.909474-26.51621l127.811368-73.701053z m180.897684 103.828211l-39.531789-69.524211c-15.009684 8.784842-26.273684 15.36-32.87579 20.264421l-10.64421-19.240421c6.629053-1.778526 18.809263-7.814737 36.567579-18.054737l18.243368-10.024421c4.958316 9.701053 9.647158 19.887158 15.629474 28.941474l33.414737 58.502737c27.486316 5.281684 59.526737-1.751579 95.501473-22.042948 36.001684-20.291368 63.595789-37.941895 83.348211-52.709052-0.053895 8.704 1.320421 18.189474 5.01221 29.049263l-57.23621 32.282947c-15.737263 8.973474-30.962526 16.976842-44.894316 23.875369-13.931789 6.898526-26.731789 10.725053-38.346105 11.452631a187.553684 187.553684 0 0 1-32.094316-0.458105c-10.078316-0.862316-16.114526 3.125895-18.647579 12.880842a205.877895 205.877895 0 0 0-6.117052 37.537684c-7.464421-4.311579-16.276211-6.278737-26.165895-6.386526 7.626105-30.450526 14.713263-48.154947 18.83621-56.346947zM433.924312 485.861053c-4.311579 7.464421-7.868632 14.740211-11.264 22.743579-24.737684-14.282105-42.334316-22.581895-51.900632-24.360421 3.772632-6.548211 6.898526-14.093474 9.862737-23.578948 10.617263 4.257684 28.240842 12.584421 53.301895 25.19579z m158.288842 62.140631c3.368421-3.664842 2.048-10.024421-3.637895-19.536842l-49.825684-87.282526-62.248421 35.624421c-7.248842 3.907368-14.551579 9.027368-22.608842 14.336l-9.997474-18.216421a429.002105 429.002105 0 0 0 31.151158-16.249263l54.757052-31.232a449.455158 449.455158 0 0 0-26.677894-42.172632l22.231579-12.665263c3.853474 8.434526 11.856842 23.659789 23.471158 43.41221 13.285053-7.895579 25.276632-14.659368 35.597473-21.746526l10.024421 18.216421c-10.455579 5.173895-22.905263 11.668211-36.917894 19.752421l53.894736 95.232c8.299789 14.740211 9.323789 25.923368 1.886316 33.414737-7.006316 7.814737-16.653474 15.925895-29.184 23.632842a76.234105 76.234105 0 0 0-19.994947-17.138526c15.764211-8.946526 25.007158-14.201263 28.079158-17.381053z m-110.996211-37.349052c4.446316-5.524211 8.488421-12.530526 12.126316-21.018948 24.602947 16.707368 40.798316 28.564211 49.313684 35.328-2.964211 5.12-7.733895 12.341895-13.123368 21.665684a334.470737 334.470737 0 0 0-48.316632-35.974736z m246.649263-10.051369c-1.724632 12.665263-3.179789 24.926316-5.766737 35.866948-8.892632-0.781474-16.572632-1.482105-22.393263-1.104843 3.098947-7.545263 5.632-17.300211 7.27579-28.779789 1.670737-11.479579 2.317474-22.312421 1.697684-32.013474l25.788632 0.592842c-3.098947 3.179789-5.066105 11.991579-6.602106 25.438316z m-114.526315-180.008421l20.264421-11.317895c6.682947 13.204211 12.314947 23.902316 16.896 32.148211l43.223579-24.225684a400.276211 400.276211 0 0 0-18.917053-30.82779l21.261474-11.991579c5.362526 11.183158 10.994526 21.908211 16.896 32.148211 4.742737-2.856421 9.781895-6.170947 16.545684-10.34779l9.431579 16.006737c-6.709895 2.991158-12.665263 5.766737-17.434948 8.623158l51.550316 90.73179c5.227789-2.56 10.509474-6.359579 16.545684-10.34779l9.431579 16.033684c-12.449684 6.467368-24.656842 12.503579-36.190315 19.536842l-51.738948 29.264842c-14.012632 8.084211-26.004211 14.848-35.570526 21.773474l-9.431579-16.033684c9.701053-4.958316 18.432-9.269895 26.192842-14.120421l-51.523368-90.73179c-5.982316 2.775579-11.802947 7.491368-19.590737 12.341895l-9.431579-16.006737c7.437474-3.179789 13.958737-6.898526 20.911158-10.347789a474.408421 474.408421 0 0 0-19.294316-32.309895z m139.560421 101.106526l-12.018527-21.261473-43.223579 24.225684 12.018527 21.234526 43.223579-24.198737z m6.090105 38.992843a76.530526 76.530526 0 0 0 5.712842-18.485895c12.341895 3.395368 26.085053 7.599158 43.115789 13.689263-2.56 6.602105-5.658947 14.147368-7.383579 22.501053-19.213474-9.862737-32.821895-16.464842-41.445052-17.704421z m134.063158-48.936422l-30.585263-53.76-42.496 24.010106c7.491368 16.168421 12.288 32.606316 14.416842 49.394526a158.989474 158.989474 0 0 1-2.236632 53.490526c-7.545263-3.125895-15.952842-3.610947-25.465263-2.263579 4.176842-16.896 6.117053-33.199158 4.850526-48.235789a118.891789 118.891789 0 0 0-11.264-41.957053c-5.739789-12.665263-16.626526-32.633263-32.14821-59.661473a1518.645895 1518.645895 0 0 0-39.01979-66.074948l81.030737-46.565052c6.494316 12.449684 14.336 26.947368 24.144842 44.43621l79.925895 140.719158c5.039158 8.515368 5.739789 17.003789 1.751579 22.797474-3.772632 6.548211-10.401684 12.665263-18.782316 19.671579-3.934316-7.275789-10.859789-12.503579-19.994947-17.165474 15.818105-5.793684 20.776421-12.261053 15.872-18.863158z m-159.797895-25.061052l-11.317895-20.210526-43.250526 24.198736 11.344842 20.210527 43.223579-24.17179z m-19.887158-34.492632l-12.018526-21.261473-43.223579 24.225684 12.018526 21.234526 43.223579-24.198737z m141.473684-7.949473l-22.689684-40.474948-41.498947 23.363369 22.716631 40.474947 41.498948-23.363368z m-31.258947-54.730106l-24.198737-43.223579-41.472 23.336421 24.198737 43.223579 41.498947-23.336421z" fill="#4c4d4e" p-id="1508"></path></svg>