<?xml version="1.0" encoding="UTF-8"?>
<svg width="13px" height="13px" viewBox="0 0 13 13" version="1.1" xmlns="http://www.w3.org/2000/svg" xmlns:xlink="http://www.w3.org/1999/xlink">
    <!-- Generator: Sketch 57.1 (83088) - https://sketch.com -->
    <title>添加人员</title>
    <desc>Created with Sketch.</desc>
    <g id="交互组件" stroke="none" stroke-width="1" fill="none" fill-rule="evenodd">
        <g id="常用元素组件" transform="translate(-493.000000, -610.000000)" fill-rule="nonzero">
            <g id="Group-5备份-9" transform="translate(100.000000, 601.000000)">
                <g id="Group" transform="translate(70.000000, 0.000000)">
                    <g id="添加人员" transform="translate(320.000000, 6.000000)">
                        <rect id="矩形" fill="#000000" opacity="0" x="0" y="0" width="20" height="20"></rect>
                        <path d="M15.5355963,12.7500635 L13.6786168,12.7500635 L13.6786168,10.8928299 C13.6786168,10.660628 13.4929316,10.4285533 13.2143402,10.4285533 C12.9357488,10.4285533 12.7500635,10.6142385 12.7500635,10.8928299 L12.7500635,12.7500635 L10.8928299,12.7500635 C10.660628,12.7500635 10.4285533,12.9357488 10.4285533,13.2143402 C10.4285533,13.4929316 10.6142385,13.6786168 10.8928299,13.6786168 L12.7500635,13.6786168 L12.7500635,15.5357234 C12.7500635,15.7679252 12.9357488,16 13.2143402,16 C13.4929316,16 13.6786168,15.8141877 13.6786168,15.5357234 L13.6786168,13.6786168 L15.5357234,13.6786168 C15.7679252,13.6786168 16,13.4928045 16,13.2143402 C16,12.9357488 15.8141877,12.7500635 15.5355963,12.7500635 L15.5355963,12.7500635 Z M13.2142131,6.71434018 C13.2142131,4.67142131 11.5427918,3 9.5,3 C7.45720822,3 5.78578691,4.67142131 5.78578691,6.71434018 C5.78578691,8.01426393 6.43574878,9.17501906 7.45720822,9.82498094 C4.85710655,10.6607551 3,13.121434 3,16 L3.92855327,16 C3.92855327,12.9357488 6.43574879,10.4285533 9.5,10.4285533 C11.5427918,10.4286804 13.2142131,8.75713195 13.2142131,6.71434018 Z M9.50000001,9.49999999 C7.9678744,9.49999999 6.71434018,8.24646579 6.71434018,6.71434018 C6.71434018,5.18221458 7.96787439,3.92855327 9.50000001,3.92855327 C11.0321256,3.92855327 12.2856598,5.18221457 12.2856598,6.71434018 C12.2856598,8.2464658 11.0321256,9.49999999 9.50000001,9.49999999 Z" id="形状" fill="#666666"></path>
                    </g>
                </g>
            </g>
        </g>
    </g>
</svg>