<?xml version="1.0" standalone="no"?><!DOCTYPE svg PUBLIC "-//W3C//DTD SVG 1.1//EN" "http://www.w3.org/Graphics/SVG/1.1/DTD/svg11.dtd"><svg t="1618890261270" class="icon" viewBox="0 0 1024 1024" version="1.1" xmlns="http://www.w3.org/2000/svg" p-id="4487" xmlns:xlink="http://www.w3.org/1999/xlink" width="20" height="20"><defs><style type="text/css"></style></defs><path d="M658.139429 502.784A402.432 402.432 0 0 1 914.285714 877.714286a36.571429 36.571429 0 1 1-73.142857 0 329.142857 329.142857 0 0 0-658.285714 0 36.571429 36.571429 0 1 1-73.142857 0 402.432 402.432 0 0 1 256.146285-374.930286 255.707429 255.707429 0 0 1-108.032-241.225143 109.714286 109.714286 0 0 0 11.702858 211.456 36.571429 36.571429 0 0 1 10.678857 67.437714 36.425143 36.425143 0 0 1-20.260572 10.971429A182.857143 182.857143 0 0 0 109.714286 731.428571a36.571429 36.571429 0 1 1-73.142857 0c0-97.572571 54.930286-183.661714 137.069714-226.742857a182.784 182.784 0 0 1 58.514286-311.588571 36.571429 36.571429 0 0 1 39.716571 10.459428 256.073143 256.073143 0 0 1 480.256 0 36.571429 36.571429 0 0 1 39.643429-10.459428 182.857143 182.857143 0 0 1 58.587428 311.588571A256.219429 256.219429 0 0 1 987.428571 731.428571a36.571429 36.571429 0 1 1-73.142857 0 182.857143 182.857143 0 0 0-150.235428-179.931428 36.425143 36.425143 0 0 1-20.260572-11.044572 36.498286 36.498286 0 0 1 10.678857-67.437714 109.714286 109.714286 0 0 0 11.702858-211.456 255.707429 255.707429 0 0 1-108.032 241.225143zM329.142857 292.571429a182.857143 182.857143 0 1 0 365.714286 0 182.857143 182.857143 0 0 0-365.714286 0z" fill="#646464" p-id="4488"></path></svg>