<?xml version="1.0" standalone="no"?>
<!DOCTYPE svg PUBLIC "-//W3C//DTD SVG 1.1//EN" "http://www.w3.org/Graphics/SVG/1.1/DTD/svg11.dtd">
<svg class="icon" width="200px" height="200.00px" viewBox="0 0 1024 1024" version="1.1" xmlns="http://www.w3.org/2000/svg">
	<path  d="M827 913H683a12 12 0 0 1 0-24h144a38 38 0 0 0 38-38V221a38 38 0 0 0-38-38H197a38 38 0 0 0-38 38v630a38 38 0 0 0 38 38h147a12 12 0 0 1 0 24H197a62.07 62.07 0 0 1-62-62V221a62.07 62.07 0 0 1 62-62h630a62.07 62.07 0 0 1 62 62v630a62.07 62.07 0 0 1-62 62zM512 520l80 80M592 612a12 12 0 0 1-8.49-3.51l-80-80a12 12 0 0 1 17-17l80 80A12 12 0 0 1 592 612zM432 600l80-80M432 612a12 12 0 0 1-8.49-20.49l80-80a12 12 0 0 1 17 17l-80 80A12 12 0 0 1 432 612zM512 913a12 12 0 0 1-12-12V520a12 12 0 0 1 24 0v381a12 12 0 0 1-12 12z" />
</svg>
