<?xml version="1.0" encoding="utf-8"?>
<!-- Generator: Adobe Illustrator 19.0.0, SVG Export Plug-In . SVG Version: 6.00 Build 0)  -->
<svg version="1.1" id="图层_1" xmlns="http://www.w3.org/2000/svg" xmlns:xlink="http://www.w3.org/1999/xlink" x="0px" y="0px"
	 viewBox="-281 404.9 32 32" style="enable-background:new -281 404.9 32 32;" xml:space="preserve">
<style type="text/css">
	.st0{fill:#3841DB;}
</style>
<g id="XMLID_1_">
	<g id="XMLID_107_">
		<path id="XMLID_108_" class="st0" d="M-265.6,427.8h-4.6c-0.6,0-1.1,0.5-1.1,1.1c0,0.6,0.5,1.1,1.1,1.1h4.6c0.6,0,1.1-0.5,1.1-1.1
			C-264.5,428.3-264.9,427.8-265.6,427.8z M-257.6,407.7h-0.8c-0.5-1.3-1.7-2.3-3.2-2.3h-6.9c-1.5,0-2.7,1-3.2,2.3h-0.7
			c-3.1,0-5.7,2.6-5.7,5.7v17.2c0,3.1,2.6,5.7,5.7,5.7h14.9c3.1,0,5.7-2.6,5.7-5.7v-17.1C-251.8,410.3-254.4,407.7-257.6,407.7z
			 M-268.4,407.7h6.9c0.6,0,1.1,0.5,1.1,1.1s-0.5,1.1-1.1,1.1h-6.9c-0.6,0-1.1-0.5-1.1-1.1S-269.1,407.7-268.4,407.7z M-254.1,430.6
			c0,1.9-1.5,3.4-3.4,3.4h-14.9c-1.9,0-3.4-1.5-3.4-3.4v-17.1c0-1.9,1.5-3.4,3.4-3.4h0.8c0.5,1.3,1.7,2.3,3.2,2.3h6.9
			c1.5,0,2.7-1,3.2-2.3h0.8c1.9,0,3.4,1.5,3.4,3.4V430.6z M-259.9,416.3h-10.2c-0.6,0-1.1,0.5-1.1,1.1c0,0.6,0.5,1.1,1.1,1.1h10.3
			c0.6,0,1.1-0.5,1.1-1.1C-258.7,416.8-259.2,416.3-259.9,416.3z M-259.9,422h-10.2c-0.6,0-1.1,0.5-1.1,1.1s0.5,1.1,1.1,1.1h10.3
			c0.6,0,1.1-0.5,1.1-1.1S-259.2,422-259.9,422z"/>
	</g>
</g>
</svg>
