<?xml version="1.0" encoding="utf-8"?>
<!-- Generator: Adobe Illustrator 19.0.0, SVG Export Plug-In . SVG Version: 6.00 Build 0)  -->
<svg version="1.1" id="图层_1" xmlns="http://www.w3.org/2000/svg" xmlns:xlink="http://www.w3.org/1999/xlink" x="0px" y="0px"
	 viewBox="-281 404.9 32 32" style="enable-background:new -281 404.9 32 32;" xml:space="preserve">
<style type="text/css">
	.st0{fill:#3841DB;}
</style>
<g id="XMLID_1_">
	<g id="XMLID_61_">
		<path id="XMLID_62_" class="st0" d="M-257.4,420.7l5.8-5.8c1.1-1.1,1.1-3,0-4.1l-3.3-3.3c-1.1-1.1-3-1.1-4.1,0l-5.8,5.8l-5.6-5.6
			c-1.1-1.1-3-1.1-4.1,0l-3.3,3.3c-1.1,1.1-1.1,3,0,4.1l5.6,5.6l-5.1,5.1l-2,8.5c-0.1,0.4,0.1,0.8,0.5,0.8c0.1,0,0.2,0,0.3,0
			l8.5-1.9l5.1-5.1l5.7,5.7c1.1,1.1,3,1.1,4.1,0l3.3-3.3c1.1-1.1,1.1-3,0-4.1L-257.4,420.7z M-256.9,408.6l4.2,4.2l-1.7,1.7
			l-4.2-4.2L-256.9,408.6z M-273,416.9l-1.1-1.1l1.4-1.4c0.4-0.4,0.4-1.1,0-1.6c-0.4-0.5-1.1-0.4-1.6,0l-1.4,1.4l-1.1-1.1l4.3-4.3
			l6.1,6.1l-4.3,4.3l-0.7-0.7l1.4-1.4c0.4-0.4,0.4-1.1,0-1.6c-0.4-0.4-1.1-0.4-1.5,0L-273,416.9z M-271,431.2l-5.5,1.3l1.3-5.5
			l0.4-0.4l4.2,4.2L-271,431.2z M-269.1,429.3l-4.2-4.2l13.2-13.3l4.2,4.2L-269.1,429.3z M-257.1,432.7l-1.1-1.1l1.4-1.4
			c0.4-0.4,0.4-1.1,0-1.6c-0.4-0.4-1.1-0.4-1.6,0l-1.4,1.4l-1.1-1.1l1.4-1.4c0.4-0.4,0.4-1.1,0-1.6c-0.4-0.4-1.1-0.4-1.5,0l-1.4,1.4
			l-0.7-0.7l4.3-4.3l6.1,6.1L-257.1,432.7z"/>
	</g>
</g>
</svg>
