<?xml version="1.0" encoding="utf-8"?>
<!-- Generator: Adobe Illustrator 19.0.0, SVG Export Plug-In . SVG Version: 6.00 Build 0)  -->
<svg version="1.1" id="图层_1" xmlns="http://www.w3.org/2000/svg" xmlns:xlink="http://www.w3.org/1999/xlink" x="0px" y="0px"
	 viewBox="-281 404.9 32 32" style="enable-background:new -281 404.9 32 32;" xml:space="preserve">
<style type="text/css">
	.st0{fill:#3841DB;}
</style>
<g id="XMLID_1_">
	<g id="XMLID_61_">
		<path id="XMLID_62_" class="st0" d="M-252.4,409.2c-0.2-0.9-1-1.6-1.9-1.6h-21.4c-0.9,0-1.7,0.7-1.9,1.6l-1.7,7.3v15.6
			c0,1.2,0.9,2.1,1.9,2.1h24.6c1.1,0,1.9-0.9,1.9-2.1v-15.6L-252.4,409.2z M-265.4,409.8h0.8l1.6,6.7h-4L-265.4,409.8z M-267,418.7
			h4v3.7h-4V418.7z M-275.6,409.8h8.1l-1.6,6.7h-8.1L-275.6,409.8z M-252.8,432h-24.4v-13.3h8.1v3.8c0,1.2,0.9,2.1,1.9,2.1h4.2
			c1.1,0,1.9-0.9,1.9-2.1v-3.8h8.1V432H-252.8z M-260.9,416.5l-1.4-6.7h8.1l1.4,6.7H-260.9z"/>
	</g>
</g>
</svg>
