<?xml version="1.0" encoding="utf-8"?>
<!-- Generator: Adobe Illustrator 19.0.0, SVG Export Plug-In . SVG Version: 6.00 Build 0)  -->
<svg version="1.1" id="图层_1" xmlns="http://www.w3.org/2000/svg" xmlns:xlink="http://www.w3.org/1999/xlink" x="0px" y="0px"
	 viewBox="-281 404.9 32 32" style="enable-background:new -281 404.9 32 32;" xml:space="preserve">
<style type="text/css">
	.st0{fill:#3841DB;}
</style>
<g id="XMLID_1_">
	<g id="XMLID_54_">
		<path id="XMLID_55_" class="st0" d="M-249.7,418.6v-0.1l-3.1-5.1c-0.2-0.2-0.5-0.3-0.9-0.3h-8.2c0-2.4-1.4-4.2-3.1-4.2h-12.9
			c-1.5,0-2.8,1.2-2.8,2.7v15c0,1.2,0.9,2.1,2.1,2.1c0,2.3,1.9,4.2,4.2,4.2c2.3,0,4.2-1.9,4.2-4.2h10.4c0,2.3,1.9,4.2,4.2,4.2
			c2.3,0,4.2-1.9,4.2-4.2c1.2,0,2.1-0.9,2.1-2.1v-7.3C-249.3,419.1-249.5,418.8-249.7,418.6z M-275.8,430.4
			c-0.1-0.1-0.2-0.2-0.2-0.3c-1.4-2.1,0.9-4.5,3-3c0.1,0.1,0.2,0.2,0.3,0.3C-271.3,429.5-273.6,431.8-275.8,430.4z M-264,426.7h-6.8
			c-0.7-1.2-2.1-2.1-3.6-2.1s-2.9,0.8-3.6,2.1h-0.6v-15c0-0.4,0.3-0.7,0.7-0.7h12.7c0.7,0,1.3,0.6,1.3,1.3v14.4H-264z M-257,430.4
			c-0.1-0.1-0.2-0.2-0.3-0.3c-1.4-2.1,0.9-4.5,3-3c0.1,0.1,0.2,0.2,0.3,0.3C-252.5,429.5-254.8,431.8-257,430.4z M-251.4,426.7h-0.6
			c-0.7-1.2-2.1-2.1-3.6-2.1s-2.9,0.8-3.6,2.1h-2.7v-11.6h7.7l2.7,4.7v6.9H-251.4z"/>
	</g>
</g>
</svg>
