<?xml version="1.0" encoding="utf-8"?>
<!-- Generator: Adobe Illustrator 19.0.0, SVG Export Plug-In . SVG Version: 6.00 Build 0)  -->
<svg version="1.1" id="图层_1" xmlns="http://www.w3.org/2000/svg" xmlns:xlink="http://www.w3.org/1999/xlink" x="0px" y="0px"
	 viewBox="0 0 32 32" style="enable-background:new 0 0 32 32;" xml:space="preserve">
<style type="text/css">
	.st0{fill:#231815;}
</style>
<g id="XMLID_1_">
	<g id="XMLID_66_">
		<path id="XMLID_67_" class="st0" d="M25.3,15.8h-8.1V7.6c0-0.6-0.5-1.2-1.2-1.2h-0.5c-0.6,0-1.2,0.5-1.2,1.2v9.7
			c0,0.6,0.5,1.2,1.2,1.2h9.7c0.6,0,1.2-0.5,1.2-1.2v-0.5C26.4,16.3,25.9,15.8,25.3,15.8z M16,0.5C7.5,0.5,0.5,7.5,0.5,16
			c0,8.5,6.9,15.5,15.5,15.5c8.5,0,15.5-6.9,15.5-15.5C31.5,7.5,24.5,0.5,16,0.5z M16,28.7C9,28.7,3.3,23,3.3,16C3.3,9,9,3.3,16,3.3
			C23,3.3,28.7,9,28.7,16C28.7,23,23,28.7,16,28.7z"/>
	</g>
</g>
</svg>
