<?xml version="1.0" encoding="utf-8"?>
<!-- Generator: Adobe Illustrator 19.0.0, SVG Export Plug-In . SVG Version: 6.00 Build 0)  -->
<svg version="1.1" id="图层_1" xmlns="http://www.w3.org/2000/svg" xmlns:xlink="http://www.w3.org/1999/xlink" x="0px" y="0px"
	 viewBox="0 0 32 32" style="enable-background:new 0 0 32 32;" xml:space="preserve">
<style type="text/css">
	.st0{fill:#DCDEDF;}
</style>
<path id="XMLID_16_" class="st0" d="M1.2,16c0,8.2,6.6,14.8,14.8,14.8S30.8,24.2,30.8,16S24.2,1.2,16,1.2S1.2,7.8,1.2,16z M12.2,16
	c0-0.3,0-0.6,0.3-0.8l5.7-5.7c0.4-0.4,1-0.4,1.4,0s0.4,1,0,1.4L14.4,16l5.1,5.1c0.4,0.4,0.4,1,0,1.4s-1,0.4-1.4,0l-5.7-5.7
	C12.2,16.6,12.1,16.3,12.2,16z"/>
</svg>
