<?xml version="1.0" encoding="utf-8"?>
<!-- Generator: Adobe Illustrator 19.0.0, SVG Export Plug-In . SVG Version: 6.00 Build 0)  -->
<svg version="1.1" id="图层_1" xmlns="http://www.w3.org/2000/svg" xmlns:xlink="http://www.w3.org/1999/xlink" x="0px" y="0px"
	 viewBox="0 0 100 25" style="enable-background:new 0 0 100 25;" xml:space="preserve">
<style type="text/css">
	.st0{fill:#FFFFFF;}
</style>
<g id="XMLID_93_">
	<g id="XMLID_277_">
		<path id="XMLID_278_" class="st0" d="M61.4,6.1H49.2l0.1,0.5H56v10.8c0,0.3-0.1,0.4-0.4,0.4c-0.6,0-3.1-0.1-3.1-0.1v0.3
			c1.2,0.2,1.7,0.4,2.1,0.8c0.4,0.3,0.5,0.8,0.6,1.6c2.6-0.2,3.1-1.3,3.1-2.6v-11h6.2c0.3,0,0.4-0.1,0.5-0.3
			c-0.8-0.8-2.3-1.9-2.3-1.9L61.4,6.1z M44.4,18.7h-3.2v-6.4h4.9c0.3,0,0.4-0.1,0.5-0.3c-0.8-0.7-2.1-1.8-2.1-1.8l-1.2,1.5h-2.1V6.2
			h5.5c0.3,0,0.4-0.1,0.5-0.3C46.4,5.2,45,4.2,45,4.2l-1.3,1.6H32.7l0.1,0.5H39v12.5h-2.6v-8.3c0.4-0.1,0.6-0.3,0.6-0.5l-2.8-0.3v9
			h-2.5l0.1,0.5h15.5c0.3,0,0.4-0.1,0.5-0.3c-0.9-0.8-2.3-1.8-2.3-1.8L44.4,18.7z M80.1,6.2c0.3,0,0.4-0.1,0.5-0.3
			c-0.8-0.8-2.3-1.8-2.3-1.8l-1.3,1.6H68l0.1,0.5L80.1,6.2L80.1,6.2z M95.7,9.3h-2.4c0.8-0.6,1.4-1.2,1.9-1.7c0.4,0,0.6-0.1,0.6-0.4
			l-2.7-0.6c-0.1,0.8-0.4,1.9-0.6,2.6h-3c0.9-0.4,1-2.1-2.1-2.6l-0.1,0.1c0.4,0.6,0.9,1.4,1,2.3c0.1,0.1,0.3,0.1,0.4,0.2h-1.8
			l-2.1-0.9v11.7h0.3c0.8,0,1.6-0.4,1.6-0.7V9.8h9.2v7.9c0,0.3-0.1,0.4-0.4,0.4c-0.4,0-1.9-0.1-1.9-0.1v0.3c0.8,0.1,1.1,0.4,1.4,0.6
			c0.3,0.3,0.3,0.8,0.4,1.4c2.3-0.2,2.5-0.9,2.5-2.3v-7.8c0.4-0.1,0.6-0.3,0.7-0.4l-1.9-1.5L95.7,9.3z M78.8,10.4H66.2l0.1,0.5h6.6
			c-0.8,1.9-3,5-4.5,6.1c-0.2,0.1-0.8,0.3-0.8,0.3l0.8,2.6c0.2-0.1,0.4-0.2,0.6-0.4c4.1-0.7,7.5-1.3,9.9-1.8
			c0.3,0.8,0.6,1.4,0.8,2.1c2.4,1.8,4-3.4-3.4-6.5L76,13.4c0.9,1.1,1.9,2.4,2.6,3.8c-3.7,0.1-7.2,0.3-9.3,0.3c2.1-1.3,4.6-3.4,5.9-5
			c0.4,0.1,0.6-0.1,0.6-0.3L73.6,11h8.3c0.3,0,0.4-0.1,0.5-0.3c-0.8-0.8-2.3-1.8-2.3-1.8L78.8,10.4z M97.4,4.6l-1.2,1.5h-4
			C93,5.6,93,4.1,90,3.9L89.9,4c0.4,0.4,0.8,1.3,0.9,1.9C90.9,6,91,6.1,91.1,6.1h-7.6l0.1,0.5H99c0.3,0,0.4-0.1,0.5-0.3
			C98.7,5.6,97.4,4.6,97.4,4.6z M94.3,17.5v-3.4c0.3-0.1,0.4-0.2,0.6-0.3L94,13.3c1.8,0.9,2.8-2.3-1.9-3l-0.1,0.1
			c0.8,0.7,1.8,1.9,2.1,2.8l-0.8-0.6l-0.8,0.9h-2.1l-1.4-0.6c0.6-0.4,1.3-1,1.8-1.6c0.4,0.1,0.6-0.1,0.7-0.3l-2.2-1.1
			c-0.7,1.4-1.6,2.9-2.3,3.9l0.2,0.2c0.4-0.2,0.8-0.4,1.2-0.8v5h0.3c0.8,0,1.6-0.4,1.6-0.6v-0.6h2.3v0.8h0.3
			C93.4,17.9,94.3,17.6,94.3,17.5z M92.5,16.6h-2.3v-2.6h2.3V16.6z M4.2,7.9L5,4.9L2.3,3.4l0.4-0.5l2.6,1.5l2.9-2.1
			C8.3,2.3,8.2,2,8,1.9H0.7c-0.2,0-0.3,0.2-0.3,0.3l3.2,5.7C3.7,8.2,4.1,8.2,4.2,7.9z M4.2,21.4C4,21,4,20.6,4.2,20.3
			C4.5,19.7,14.7,6.8,14.7,6.8L17,4c0.3-0.5,0.3-1,0-1.4c-0.2-0.3-0.6-0.6-1-0.6h-1.3h-2.2c0.1,0,0.1,0,0.1,0
			c-0.9,0-1.8,0.1-2.5,0.3C9,2.6,8,3.3,7.3,3.8C7,3.9,6.8,4.1,6.5,4.4C6.5,4.4,6.4,4.5,6.4,4.5c2.4,0.4,3.6,1.7,4.3,2.9
			c-2,2.5-4.5,5.8-4.8,6.2c-0.4,0.5-0.8,1-1.1,1.5c-0.3,0.4-0.6,0.8-0.9,1.2c-0.2,0.3-0.4,0.5-0.6,0.8c-0.1,0.1-0.1,0.2-0.2,0.3
			l-2.3,2.8c-0.3,0.5-0.3,1,0,1.4c0.2,0.3,0.6,0.6,1,0.6h1.3h2.1C4.8,22.1,4.4,21.8,4.2,21.4z M20.1,17.4v2.4h2.4v-2.4H20.1z
			 M17.8,17.4h2.4V15h-6.6l0,0l0,0c2.9-3.8,6.4-8.3,6.4-8.3l2.3-2.8c0.3-0.5,0.3-1,0-1.4c-0.2-0.3-0.6-0.6-1-0.6H20h-2.2
			c0.4,0,0.9,0.3,1.1,0.7c0.2,0.4,0.1,0.8,0,1.1c-0.1,0.3-0.3,0.5-0.5,0.8c-0.6,0.8-6.6,8.5-7.1,9.1c-0.4,0.5-0.8,1-1.1,1.5
			c-0.3,0.4-0.6,0.8-0.9,1.2c-0.2,0.3-0.4,0.5-0.6,0.8c-0.1,0.1-0.1,0.2-0.2,0.3l-2.3,2.8c-0.3,0.5-0.3,1,0,1.4
			c0.2,0.3,0.6,0.6,1,0.6h1.3h2.2c-0.1,0-0.1,0-0.1,0h9.7l-0.1-2.4h-2.4V17.4z M22.5,22.1h2.4v-2.4h-2.4V22.1z"/>
	</g>
</g>
</svg>
