<?xml version="1.0" encoding="utf-8"?>
<!-- Generator: Adobe Illustrator 19.0.0, SVG Export Plug-In . SVG Version: 6.00 Build 0)  -->
<svg version="1.1" id="图层_1" xmlns="http://www.w3.org/2000/svg" xmlns:xlink="http://www.w3.org/1999/xlink" x="0px" y="0px"
	 viewBox="0 0 32 32" style="enable-background:new 0 0 32 32;" xml:space="preserve">
<style type="text/css">
	.st0{fill:#DCDEDF;}
</style>
<path id="XMLID_16_" class="st0" d="M16,1.2C7.8,1.2,1.2,7.8,1.2,16S7.8,30.8,16,30.8S30.8,24.2,30.8,16S24.2,1.2,16,1.2z
	 M19.6,16.8l-5.7,5.7c-0.4,0.4-1,0.4-1.4,0s-0.4-1,0-1.4l5.1-5.1l-5.1-5.1c-0.4-0.4-0.4-1,0-1.4s1-0.4,1.4,0l5.7,5.7
	c0.2,0.2,0.3,0.5,0.3,0.8C19.9,16.3,19.8,16.6,19.6,16.8z"/>
</svg>
