<?xml version="1.0" encoding="utf-8"?>
<!-- Generator: Adobe Illustrator 19.0.0, SVG Export Plug-In . SVG Version: 6.00 Build 0)  -->
<svg version="1.1" id="图层_1" xmlns="http://www.w3.org/2000/svg" xmlns:xlink="http://www.w3.org/1999/xlink" x="0px" y="0px"
	 viewBox="0 0 32 32" style="enable-background:new 0 0 32 32;" xml:space="preserve">
<style type="text/css">
	.st0{fill:#231815;}
</style>
<path id="XMLID_297_" class="st0" d="M25.9,5c1.4,0,2.6,1.1,2.6,2.6v13.4c0,1.4-1.1,2.6-2.6,2.6l-9,0v1.8h7.2V27H7.9v-1.8h7.2v-1.8
	l-9,0c-1.4,0-2.6-1.1-2.6-2.6V7.5C3.6,6.1,4.7,5,6.1,5C6.1,5,25.9,5,25.9,5z M25.9,6.7H6.1c-0.4,0-0.8,0.4-0.8,0.8v13.4
	c0,0.4,0.4,0.8,0.8,0.8h19.8c0.4,0,0.8-0.4,0.8-0.8V7.5C26.7,7.1,26.3,6.7,25.9,6.7z M22,11.2l1.2,1.2l-3.3,3.3
	c-1.1,1.1-2.9,1.1-4,0l-1.5-1.5c-0.4-0.4-1.1-0.4-1.5,0l-3,3L8.7,16l3-3c1.1-1.1,2.9-1.1,4,0l1.5,1.5c0.4,0.4,1.1,0.4,1.5,0L22,11.2
	z"/>
</svg>
