<?xml version="1.0" standalone="no"?>
<!DOCTYPE svg PUBLIC "-//W3C//DTD SVG 1.1//EN" "http://www.w3.org/Graphics/SVG/1.1/DTD/svg11.dtd">
<svg class="icon" width="200px" height="200.00px" viewBox="0 0 1024 1024" version="1.1" xmlns="http://www.w3.org/2000/svg">
	<path d="M497.203 852.787c-163.174 0-290.201-29.542-326.144-38.86a63.54 63.54 0 0 1-47.565-61.492V522.086c0-11.776 5.735-22.835 15.31-29.644a36.685 36.685 0 0 1 33.28-4.71c199.833 69.785 522.034 77.772 654.182-16.078 39.424-28.006 58.624-62.054 58.624-104.14 0-55.092-54.99-89.19-101.12-108.135-61.543-25.241-147.61-39.68-236.084-39.68-158.822 0-278.63 43.827-278.63 101.99-0.051 21.914 13.26 40.09 40.653 55.757 100.915 57.55 331.98 44.493 398.797 4.71 10.342-6.143 13.977-11.417 13.977-13.516-0.256-12.288-59.853-35.84-172.851-36.966-62.208-0.666-105.165 8.601-105.626 8.704-11.059 2.457-21.964-4.557-24.37-15.616-2.407-11.06 4.556-21.965 15.615-24.372 1.946-0.41 47.77-10.393 114.79-9.676 63.693 0.665 211.969 9.472 213.402 77.107 0.256 13.21-5.376 32.563-33.945 49.561-85.453 50.842-331.93 57.293-440.013-4.352-50.79-28.979-61.389-65.69-61.338-91.392 0-98.662 160.512-142.848 319.59-142.848 94.977 0 184.372 15.207 251.649 42.752 82.79 33.946 126.566 84.43 126.566 146.023 0 55.552-25.498 101.785-75.827 137.523-144.896 102.86-475.495 94.72-685.517 23.347v224c0 10.291 6.963 19.251 16.896 21.863 58.42 15.155 365.21 85.504 668.416-16.845 20.992-7.117 35.123-26.983 35.072-49.51a80962.85 80962.85 0 0 0-0.358-142.285l40.96-0.154s0.256 73.011 0.358 142.387c0.051 40.141-25.242 75.623-62.925 88.371-127.283 42.906-254.925 56.525-365.824 56.525zM271.77 820.582c-11.316 0-20.48-9.164-20.48-20.48v-79.82c0-11.316 9.164-20.48 20.48-20.48s20.48 9.164 20.48 20.48v79.82c0 11.316-9.165 20.48-20.48 20.48z m-23.91-362.188c-11.316 0-20.48-9.165-20.48-20.48V329.01c0-11.315 9.164-20.48 20.48-20.48s20.48 9.165 20.48 20.48v108.903c0 11.315-9.166 20.48-20.48 20.48z m151.756 380.928c-11.315 0-20.48-9.165-20.48-20.48v-79.77c0-11.315 9.165-20.48 20.48-20.48s20.48 9.165 20.48 20.48v79.77c0 11.315-9.165 20.48-20.48 20.48z m127.898 7.526c-11.316 0-20.48-9.165-20.48-20.48v-79.77c0-11.315 9.164-20.48 20.48-20.48s20.48 9.165 20.48 20.48v79.77c0 11.315-9.216 20.48-20.48 20.48z m255.692-28.16c-11.315 0-20.48-9.165-20.48-20.48v-79.77c0-11.315 9.165-20.48 20.48-20.48s20.48 9.165 20.48 20.48v79.77c0 11.315-9.164 20.48-20.48 20.48zM655.36 839.322c-11.315 0-20.48-9.165-20.48-20.48v-79.77c0-11.315 9.165-20.48 20.48-20.48s20.48 9.165 20.48 20.48v79.77c0 11.315-9.165 20.48-20.48 20.48z" />
</svg>
