<?xml version="1.0" standalone="no"?><!DOCTYPE svg PUBLIC "-//W3C//DTD SVG 1.1//EN" "http://www.w3.org/Graphics/SVG/1.1/DTD/svg11.dtd"><svg class="icon" width="200px" height="200.00px" viewBox="0 0 1024 1024" version="1.1" xmlns="http://www.w3.org/2000/svg"><path fill="#333333" d="M204.8 112h611.2c51.2 0 96 41.6 96 96v611.2c0 51.2-41.6 96-96 96H204.8c-51.2 0-96-41.6-96-96V204.8c3.2-51.2 44.8-92.8 96-92.8z m0 64c-16 0-32 12.8-32 32v611.2c0 16 12.8 32 32 32h611.2c16 0 32-12.8 32-32V204.8c0-16-12.8-32-32-32l-611.2 3.2z m150.4 448l60.8-60.8 44.8 44.8-60.8 60.8 60.8 60.8-44.8 44.8-60.8-60.8-60.8 60.8-44.8-44.8 60.8-60.8L249.6 608l44.8-44.8 60.8 60.8z m-32-300.8V236.8h64V320h83.2v64H384v83.2h-64V384H236.8v-64h86.4z m230.4 0h233.6v64h-233.6v-64z m0 252.8h233.6v64h-233.6v-64z m0 124.8h233.6v64h-233.6v-64z" /></svg>