<?xml version="1.0" standalone="no"?>
<!DOCTYPE svg PUBLIC "-//W3C//DTD SVG 1.1//EN" "http://www.w3.org/Graphics/SVG/1.1/DTD/svg11.dtd">
<svg class="icon" width="200px" height="200.00px" viewBox="0 0 1024 1024" version="1.1" xmlns="http://www.w3.org/2000/svg">
	<path  d="M634.609 447.366L579.077 598.15 523.6 447.366c-4.402-11.9-16.03-18.528-27.984-17.715-12.062-0.814-23.582 5.815-27.929 17.715L412.154 598.15l-55.477-150.784c-5.271-14.399-21.354-21.844-35.7-16.464-14.453 5.27-21.844 21.3-16.518 35.699l81.612 221.694c4.022 10.92 14.455 18.202 26.082 18.202 11.683 0 22.115-7.281 26.136-18.202l57.325-155.783 57.38 155.783c4.02 10.92 14.453 18.202 26.081 18.202 11.682 0 22.115-7.281 26.135-18.202l81.56-221.694c5.324-14.399-2.066-30.428-16.464-35.699-14.505-5.38-30.48 2.065-35.697 16.464z m232.996 344.602l-47.6-27.766c-26.407-15.377-48.033-2.934-48.033 27.657v0.272H632.87c-15.376 0-27.82 12.498-27.82 27.82 0 15.432 12.443 27.821 27.82 27.821h139.483c1.033 29.016 22.06 40.97 47.979 26.3l46.947-26.626c26.625-15.106 26.732-40.1 0.326-55.478z m-95.633 109.488c-0.162 0-0.325 0.054-0.434 0.054h-546.3c-17.823 0-32.929-11.138-32.929-24.342V289.464h139.103c46.077 0 83.46-37.438 83.46-83.515v-83.461h356.666c17.822 0 32.818 11.193 32.818 24.397V736.22h55.641V146.885c0-44.122-39.666-80.038-88.46-80.038H338.91L136.67 251.755v625.413c0 44.066 39.666 79.983 88.568 79.983h546.3c39.339 0 72.376-23.472 83.841-55.64h-83.407v-0.055z m-412.74-777.773v82.266c0 15.324-12.497 27.82-27.82 27.82h-92.644l120.464-110.086z" />
</svg>
