<?xml version="1.0" encoding="utf-8"?>
<!-- Generator: Adobe Illustrator 22.1.0, SVG Export Plug-In . SVG Version: 6.00 Build 0)  -->
<svg version="1.1" id="图层_1" xmlns="http://www.w3.org/2000/svg" xmlns:xlink="http://www.w3.org/1999/xlink" x="0px" y="0px"
	 viewBox="0 0 128 128" style="enable-background:new 0 0 128 128;" xml:space="preserve">
<style type="text/css">
	.st0{fill:#4C4D4E;}
	.st1{clip-path:url(#SVGID_2_);}
	.st2{clip-path:url(#SVGID_2_);fill:none;}
</style>
<path class="st0" d="M96,8.6C86.3,3,75.3,0,64.1,0C41.9,0,20.4,11.5,8.6,32C-9.1,62.6,1.4,101.8,32,119.4c9.7,5.7,20.7,8.6,31.9,8.6
	c22.2,0,43.7-11.5,55.5-32C137.1,65.4,126.6,26.3,96,8.6z M116.7,94.4c-16.8,28.9-53.8,38.9-82.8,22.1S-5,62.7,11.8,33.7
	S65.6-5.2,94.6,11.6c21,12.2,32.8,35.8,29.8,59.9C123.4,79.6,120.7,87.4,116.7,94.4z"/>
<path class="st0" d="M93.3,13.2c-8.9-5.2-19-7.9-29.2-7.9c-20.3,0-40,10.5-50.9,29.3c-16.2,28-6.6,63.9,21.4,80.1
	c8.9,5.2,19,7.9,29.2,7.9c20.3,0,40-10.5,50.9-29.3C131,65.3,121.4,29.4,93.3,13.2z M119.6,49.1c8.2,30.7-10,62.1-40.7,70.3
	c-30.7,8.1-62.1-10-70.3-40.7s10-62.1,40.7-70.3c22.5-6,46.6,2.2,60.6,20.9C114.5,35.2,117.7,41.9,119.6,49.1z"/>
<g>
	<defs>
		<rect id="SVGID_1_" x="22.2" y="39.7" width="84.1" height="50.6"/>
	</defs>
	<clipPath id="SVGID_2_">
		<use xlink:href="#SVGID_1_"  style="overflow:visible;"/>
	</clipPath>
	<g class="st1">
		<path class="st0" d="M72.8,74.5l-3.2-1.9c-0.6,1.3-1.4,2.6-2.4,3.9c-1,1.3-2,2.4-2.9,3.1c0.8,0.4,1.7,1,2.7,1.7
			c1.1-1.2,2.1-2.6,3.2-4.1C71.3,75.6,72.1,74.6,72.8,74.5z"/>
		<path class="st0" d="M83.3,77.2c-1.7-2-3.1-3.4-4.4-4.7c-0.6,0.7-1.3,1.4-2,1.9c1,0.8,2.2,2.5,3.9,5.1
			C81.6,78.5,82.5,77.8,83.3,77.2z"/>
		<path class="st0" d="M64.5,71.9c1.7-0.2,3.6-0.2,6-0.2l8.5,0c1.9-0.1,3.9,0,5.9,0.1l-0.1-2.7c-1,0.1-2,0.2-2.8,0.1l-0.1-14.9
			c0.8,0,1.7,0,2.8,0.1l-0.1-2.7c-1.1,0-2,0.1-2.8,0.1c0-1.7,0-3.4,0.1-5.2l-3.5,0c0.1,1.7,0.2,3.4,0.2,5.2l-7.1,0
			c0-1.3,0.1-3.1,0.1-5.2l-3.3,0l0,0c0.1,1.8,0.2,3.6,0.1,5.4c-1.1-0.1-2.2,0-3.3-0.2l0.1,2.7c1.3-0.1,2.4-0.2,3.3-0.2l0.1,14.9
			c-1.3,0.1-2.7,0-4.3-0.1L64.5,71.9z M78.8,69.1l-7.1,0l0-3.5l7.1,0L78.8,69.1z M78.8,63.3L78.8,63.3l-7.1,0l0-3.3l7.1,0L78.8,63.3
			z M78.7,54.2l0,3.5l-7.1,0l0-3.5L78.7,54.2z"/>
		<path class="st0" d="M40.5,56.6l10.3-0.1l0.1,14.4c0,1.6-0.2,2.5-0.9,2.7c-0.6,0.2-2.1,0.2-4.7,0.2c0.6,1.1,1.1,2.3,1.3,3.5
			c2.1-0.1,3.9-0.4,5.3-0.9c1.5-0.4,2.1-1.9,2.1-4.3l-0.1-15.6c2.3,0,4.3,0,6,0.1l0-3c-1.8,0.2-3.8,0.2-6,0.2
			c-0.1-3.3,0-5.7,0.1-7.1l-3.7,0c0.3,2.4,0.4,4.7,0.4,7.1l-9,0.1c-1.7,0-3.4,0-5-0.2l0,3C38,56.7,39.3,56.6,40.5,56.6z"/>
		<path class="st0" d="M99.9,55.2c0-2.9,0-5.2,0.1-7.2l-13.4,0.1c0.2,3.7,0.3,7.3,0.2,11c0,4.5,0,7.7-0.2,9.7
			c-0.1,2.1-0.7,4.1-1.5,6c-0.9,2-2.3,3.9-4,5.7c1.3,0.5,2.3,1.1,3,2.1c1.7-1.9,3.1-4.1,4-6.5c0.9-2.2,1.5-4.6,1.7-7.2l7,0l0.1,8.8
			l0,0c0.2,1.2-0.9,1.6-3.3,1.2c0.8,1.2,1.3,2.4,1.3,3.5c1.5-0.3,2.8-0.6,3.7-1.1c0.9-0.4,1.4-1.6,1.4-3L99.9,55.2z M90,50.5l6.8,0
			l0,7.1l0,0l-6.8,0L90,50.5z M90.1,66.6l0-6.6l6.8,0l0,6.6l0,0L90.1,66.6z"/>
		<path class="st0" d="M17.7,80.5c0.8-0.9,1.5-2.9,2.1-5.8c-1.5-0.5-2.7-1.1-3.9-1.8c-0.3,3-0.9,4.7-1.5,5.4c-0.7,0.7-1.9,1-3.7,0.9
			l-15.6,0.1c-2.8,0.1-4.1-1-3.9-3.6l-0.1-10.5L11.8,65l0.1,2.4l3.5,0c-0.1-2.1-0.1-4.2-0.2-6.4l-0.1-5.9c-0.1-1.8,0.1-3.6,0.1-5.5
			l-21.1,0.3c-2.7,0-5.3,0-8-0.1l0,3.1c3.1-0.1,5.8-0.2,8.2-0.2l17.5-0.2l0.1,9.9l-20.6,0.2c0-1.4,0.1-2.9,0.1-4.4l-3.8,0
			c0.2,2.9,0.3,4.9,0.3,5.9l0.1,13.5c-0.2,3.3,1.6,4.9,5.4,4.8l21-0.2C15.8,82,16.9,81.5,17.7,80.5z"/>
		<path class="st0" d="M42.2,69c1.3-0.8,2.4-1.4,3.2-1.8c-0.6-1.4-1.8-4-3.7-7.9c-1,0.8-2,1.4-3,1.8C40.1,63.7,41.3,66.3,42.2,69z"
			/>
		<path class="st0" d="M30.5,63.7l0.1,11.4c-1.1,0.7-3.2,2.4-6.3,5.7c1.2,0.7,2.2,1.6,2.8,2.6c1-1.5,2.1-2.9,3.4-4.3
			c1-1,2-1.1,3.2-0.3c1.3,0.9,2.6,1.6,4,2.3c1.5,0.7,3.4,1.1,5.6,1.3c2.2,0.1,4.7,0.2,7.3,0.2l9.4,0c0.3-1.6,0.8-2.9,1.4-4
			c-3.5,0.5-8.2,0.7-14.1,0.7c-5.9,0-10.4-1.3-13.5-3.9l-0.1-9.6c-0.1-1.5,0-3.1,0.1-4.7l-3,0c-2.9,0-4.9-0.1-5.8-0.3l0,3.1
			C26.2,63.8,28,63.8,30.5,63.7z"/>
		<path class="st0" d="M31.5,56.8c1-0.8,1.9-1.4,3-2c-2.2-3.3-3.9-5.6-4.9-6.9c-1,1-2,1.7-2.9,2.3C27.8,51,29.4,53.3,31.5,56.8z"/>
	</g>
	<rect x="-13.8" y="46.8" class="st2" width="115.6" height="36.7"/>
</g>
</svg>
