<?xml version="1.0" encoding="utf-8"?>
<!-- Generator: Adobe Illustrator 19.0.0, SVG Export Plug-In . SVG Version: 6.00 Build 0)  -->
<svg version="1.1" id="图层_1" xmlns="http://www.w3.org/2000/svg" xmlns:xlink="http://www.w3.org/1999/xlink" x="0px" y="0px"
	 viewBox="-287 410.9 20 20" style="enable-background:new -287 410.9 20 20;" xml:space="preserve">
<style type="text/css">
	.st0{fill:#FFFFFF;fill-opacity:1.000000e-002;}
	.st1{fill:#9DA3AC;}
</style>
<rect x="-287" y="410.9" class="st0" width="20" height="20"/>
<path class="st1" d="M-277,421.9c-2.7,0-5.3-0.8-7-2.2c-0.6-0.5-1.1-1.1-1.4-1.7c-0.3-0.5-0.1-1.1,0.4-1.3c0.5-0.3,1.1-0.1,1.3,0.4
	c0.2,0.4,0.5,0.7,0.9,1.1c1.3,1.1,3.4,1.7,5.7,1.7c2.3,0,4.4-0.6,5.7-1.7c0.4-0.3,0.7-0.7,0.9-1.1c0.3-0.5,0.9-0.7,1.3-0.4
	c0.5,0.3,0.7,0.9,0.4,1.3c-0.3,0.6-0.8,1.2-1.4,1.7C-271.7,421.2-274.3,421.9-277,421.9z"/>
<path class="st1" d="M-274.1,425.2c-0.4,0-0.8-0.3-1-0.7l-0.9-3.2c-0.1-0.5,0.2-1.1,0.7-1.2c0.5-0.1,1.1,0.2,1.2,0.7l0.9,3.2
	c0.1,0.5-0.2,1.1-0.7,1.2C-273.9,425.2-274,425.2-274.1,425.2z"/>
<path class="st1" d="M-269.1,423.2c-0.3,0-0.5-0.1-0.7-0.3l-2.4-2.4c-0.4-0.4-0.4-1,0-1.4s1-0.4,1.4,0l2.4,2.4c0.4,0.4,0.4,1,0,1.4
	C-268.6,423.1-268.8,423.2-269.1,423.2z"/>
<path class="st1" d="M-284.9,423.2c-0.3,0-0.5-0.1-0.7-0.3c-0.4-0.4-0.4-1,0-1.4l2.4-2.4c0.4-0.4,1-0.4,1.4,0s0.4,1,0,1.4l-2.4,2.4
	C-284.4,423.1-284.7,423.2-284.9,423.2z"/>
<path class="st1" d="M-279.9,425.2c-0.1,0-0.2,0-0.3,0c-0.5-0.1-0.9-0.7-0.7-1.2l0.9-3.2c0.1-0.5,0.7-0.9,1.2-0.7
	c0.5,0.1,0.9,0.7,0.7,1.2l-0.9,3.2C-279.1,424.9-279.5,425.2-279.9,425.2z"/>
</svg>
