<?xml version="1.0" standalone="no"?><!DOCTYPE svg PUBLIC "-//W3C//DTD SVG 1.1//EN" "http://www.w3.org/Graphics/SVG/1.1/DTD/svg11.dtd"><svg t="1618890189722" class="icon" viewBox="0 0 1024 1024" version="1.1" xmlns="http://www.w3.org/2000/svg" p-id="3996" width="20" height="20" xmlns:xlink="http://www.w3.org/1999/xlink"><defs><style type="text/css"></style></defs><path d="M662.528 531.968c76.8-49.152 127.488-135.168 127.488-232.448C790.016 146.944 665.6 23.04 512 23.04c-153.088 0-278.016 123.904-278.016 276.48 0 97.28 50.688 182.784 127.488 232.448C177.664 594.944 45.056 770.048 45.056 975.36c0 20.992 17.408 38.4 38.4 38.4s38.4-17.408 38.4-38.4c0-216.064 175.104-391.68 390.144-391.68s390.144 175.616 390.144 391.68c0 20.992 17.408 38.4 38.4 38.4s38.4-17.408 38.4-38.4c0-205.312-132.608-380.416-316.416-443.392zM512 499.2c-111.104 0-201.216-89.6-201.216-199.68S400.896 99.84 512 99.84s201.216 89.6 201.216 199.68S623.104 499.2 512 499.2z" p-id="3997" fill="#4c4d4e"></path><path d="M653.824 702.464L480.256 875.008l-75.264-74.752c-14.848-14.848-39.424-14.848-54.272 0-14.848 14.848-14.848 39.424 0 54.272l129.536 129.024 227.84-226.816c14.848-14.848 14.848-39.424 0-54.272-14.848-14.848-39.424-14.848-54.272 0z" p-id="3998" fill="#4c4d4e"></path></svg>