<?xml version="1.0" standalone="no"?>
<!DOCTYPE svg PUBLIC "-//W3C//DTD SVG 1.1//EN" "http://www.w3.org/Graphics/SVG/1.1/DTD/svg11.dtd">
<svg class="icon" width="200px" height="200.00px" viewBox="0 0 1024 1024" version="1.1" xmlns="http://www.w3.org/2000/svg">
	<path  d="M848 766.4c44.182 0 80 35.818 80 80s-35.818 80-80 80H592c-44.182 0-80-35.818-80-80s35.818-80 80-80h256z m0 48H592c-17.674 0-32 14.326-32 32s14.326 32 32 32h256c17.674 0 32-14.326 32-32s-14.326-32-32-32zM176 96c44.182 0 80 35.818 80 80 0 35.82-23.542 66.144-56 76.336V512h200c13.254 0 24 10.746 24 24s-10.746 24-24 24H200v246.4c0 8.688 6.923 15.757 15.552 15.994l0.448 0.006h232c13.254 0 24 10.746 24 24 0 13.088-10.475 23.728-23.498 23.995l-0.502 0.005H216c-34.992 0-63.426-28.083-63.992-62.942L152 806.4V252.338C119.544 242.146 96 211.82 96 176c0-44.182 35.818-80 80-80z m672 360c44.182 0 80 35.818 80 80s-35.818 80-80 80H592c-44.182 0-80-35.818-80-80s35.818-80 80-80h256z m0 48H592c-17.674 0-32 14.326-32 32s14.326 32 32 32h256c17.674 0 32-14.326 32-32s-14.326-32-32-32z m0-408c44.182 0 80 35.818 80 80s-35.818 80-80 80H400c-44.182 0-80-35.818-80-80s35.818-80 80-80h448z m-672 48c-17.674 0-32 14.326-32 32s14.326 32 32 32 32-14.326 32-32-14.326-32-32-32z m672 0H400c-17.674 0-32 14.326-32 32s14.326 32 32 32h448c17.674 0 32-14.326 32-32s-14.326-32-32-32z" />
</svg>
