<?xml version="1.0" standalone="no"?><!DOCTYPE svg PUBLIC "-//W3C//DTD SVG 1.1//EN" "http://www.w3.org/Graphics/SVG/1.1/DTD/svg11.dtd"><svg class="icon" width="200px" height="200.00px" viewBox="0 0 1024 1024" version="1.1" xmlns="http://www.w3.org/2000/svg"><path fill="#333333" d="M921.6 745.6h-28.8c0 64-51.2 118.4-118.4 118.4s-118.4-51.2-118.4-118.4h-291.2c0 64-51.2 118.4-118.4 118.4S128 812.8 128 745.6h-25.6c-16 0-28.8-12.8-28.8-28.8V278.4C73.6 214.4 124.8 160 192 160h291.2c64 0 118.4 51.2 118.4 118.4h144c9.6 0 16 3.2 25.6 9.6l172.8 172.8v3.2c6.4 6.4 9.6 12.8 9.6 22.4v233.6c-3.2 12.8-16 25.6-32 25.6z m-672 57.6c32 0 57.6-25.6 57.6-57.6s-25.6-57.6-57.6-57.6-57.6 25.6-57.6 57.6 25.6 57.6 57.6 57.6z m291.2-524.8c0-32-25.6-57.6-57.6-57.6H192c-32 0-57.6 25.6-57.6 57.6v409.6h16c19.2-35.2 57.6-57.6 99.2-57.6s80 22.4 99.2 57.6h192V278.4z m233.6 524.8c32 0 57.6-25.6 57.6-57.6s-25.6-57.6-57.6-57.6-57.6 25.6-57.6 57.6 25.6 57.6 57.6 57.6z m118.4-307.2l-160-160h-131.2v352h73.6c19.2-35.2 57.6-57.6 99.2-57.6s80 22.4 99.2 57.6h16v-192z" /></svg>