<?xml version="1.0" standalone="no"?><!DOCTYPE svg PUBLIC "-//W3C//DTD SVG 1.1//EN" "http://www.w3.org/Graphics/SVG/1.1/DTD/svg11.dtd"><svg class="icon" width="200px" height="200.00px" viewBox="0 0 1024 1024" version="1.1" xmlns="http://www.w3.org/2000/svg"><path fill="#333333" d="M515.2 329.6c-44.8 0-80 22.4-105.6 51.2l32 28.8c22.4-22.4 44.8-35.2 70.4-35.2 35.2 0 51.2 19.2 51.2 48 0 51.2-92.8 70.4-80 150.4h48c-9.6-70.4 83.2-83.2 83.2-153.6 0-57.6-38.4-89.6-99.2-89.6z m-9.6 281.6c-25.6 0-41.6 16-41.6 41.6s19.2 41.6 41.6 41.6c25.6 0 44.8-16 44.8-41.6s-19.2-41.6-44.8-41.6z m6.4-480C300.8 131.2 131.2 300.8 131.2 512S300.8 892.8 512 892.8 892.8 723.2 892.8 512 723.2 131.2 512 131.2z m0 710.4c-182.4 0-329.6-147.2-329.6-329.6S329.6 182.4 512 182.4 841.6 329.6 841.6 512 694.4 841.6 512 841.6z" /></svg>