<?xml version="1.0" encoding="utf-8"?>
<!-- Generator: Adobe Illustrator 19.0.0, SVG Export Plug-In . SVG Version: 6.00 Build 0)  -->
<svg version="1.1" id="图层_1" xmlns="http://www.w3.org/2000/svg" xmlns:xlink="http://www.w3.org/1999/xlink" x="0px" y="0px"
	 viewBox="0 0 20 20" style="enable-background:new 0 0 20 20;" xml:space="preserve">
<style type="text/css">
	.st0{fill:#FFFFFF;}
</style>
<g id="XMLID_1_">
	<g id="XMLID_48_">
		<path id="XMLID_49_" class="st0" d="M17.2,7.2c-0.4,0-0.8,0.4-0.8,0.8v10.3H1.6v-15h9.6c0.4,0,0.8-0.4,0.8-0.8
			c0-0.4-0.4-0.8-0.8-0.8H0.8C0.4,1.7,0,2.1,0,2.5v16.6c0,0.4,0.4,0.8,0.8,0.8h16.4c0.4,0,0.8-0.4,0.8-0.8V8
			C18,7.6,17.6,7.2,17.2,7.2z M19.2,2H18V0.8C18,0.4,17.6,0,17.2,0c-0.4,0-0.8,0.4-0.8,0.8V2h-1.2c-0.4,0-0.8,0.4-0.8,0.8v0
			c0,0.4,0.4,0.8,0.8,0.8h1.2v1.2c0,0.4,0.4,0.8,0.8,0.8c0.4,0,0.8-0.4,0.8-0.8V3.6h1.2c0.4,0,0.8-0.4,0.8-0.8v0
			C20,2.4,19.6,2,19.2,2z M10.8,8c-0.2,0-0.4,0.1-0.6,0.2L8.5,9.7L7.7,9C7.4,8.7,6.9,8.7,6.6,9l-4,4.2c-0.2,0.2-0.3,0.6-0.2,0.9
			c0.1,0.3,0.4,0.5,0.7,0.5h11.8c0.3,0,0.6-0.2,0.7-0.5c0.1-0.3,0.1-0.6-0.1-0.9l-4.2-4.9C11.2,8.1,11,8,10.8,8z M5,12.9l2.2-2.2
			l0.8,0.7c0.3,0.3,0.8,0.3,1.1,0l1.7-1.5l2.5,3H5z"/>
	</g>
</g>
</svg>
