<?xml version="1.0" encoding="utf-8"?>
<!-- Generator: Adobe Illustrator 19.0.0, SVG Export Plug-In . SVG Version: 6.00 Build 0)  -->
<svg version="1.1" id="图层_1" xmlns="http://www.w3.org/2000/svg" xmlns:xlink="http://www.w3.org/1999/xlink" x="0px" y="0px"
	 viewBox="0 0 32 32" style="enable-background:new 0 0 32 32;" xml:space="preserve">
<style type="text/css">
	.st0{fill:#4DB359;}
</style>
<g id="XMLID_121_">
	<g id="XMLID_76_">
		<path id="XMLID_77_" class="st0" d="M16,1.7C8.1,1.7,1.7,8.1,1.7,16S8.1,30.3,16,30.3S30.3,23.9,30.3,16S23.9,1.7,16,1.7z
			 M16,28.3C9.2,28.3,3.7,22.8,3.7,16S9.2,3.7,16,3.7S28.3,9.2,28.3,16S22.8,28.3,16,28.3z M22.6,11.4l-7.5,7.5l-4.5-4.5
			c-0.4-0.4-1-0.4-1.4,0c-0.4,0.4-0.4,1,0,1.4l5.1,5.1c0.3,0.3,0.8,0.3,1.2,0.1c0.2,0,0.3-0.1,0.5-0.2l7.9-7.9c0.4-0.4,0.4-1,0-1.4
			C23.6,11,23,11,22.6,11.4z"/>
	</g>
</g>
</svg>
